<?xml version="1.0" standalone="no"?>
<!DOCTYPE svg PUBLIC "-//W3C//DTD SVG 20010904//EN"
 "http://www.w3.org/TR/2001/REC-SVG-20010904/DTD/svg10.dtd">
<svg version="1.0" xmlns="http://www.w3.org/2000/svg"
 width="128.000000pt" height="128.000000pt" viewBox="0 0 128.000000 128.000000"
 preserveAspectRatio="xMidYMid meet">

<g transform="translate(0.000000,128.000000) scale(0.100000,-0.100000)"
fill="#000000" stroke="none">
<path d="M248 1157 c-103 -39 -172 -102 -217 -197 -22 -46 -26 -69 -26 -141 0
-78 3 -91 37 -160 43 -86 115 -161 353 -364 194 -166 219 -185 247 -185 17 0
77 45 197 146 275 233 355 313 399 402 34 70 37 83 37 161 0 72 -4 95 -26 142
-36 76 -86 129 -161 170 -60 32 -68 34 -163 34 -90 0 -105 -3 -153 -28 -29
-15 -71 -44 -92 -64 l-40 -35 -40 35 c-70 64 -134 90 -230 94 -55 2 -98 -2
-122 -10z m213 -122 c19 -10 62 -44 96 -76 36 -35 70 -59 83 -59 13 0 47 24
83 59 85 81 117 95 202 95 53 0 80 -5 112 -22 92 -48 144 -156 123 -256 -16
-77 -53 -128 -171 -237 -114 -106 -339 -299 -349 -299 -9 0 -301 251 -386 332
-118 113 -158 200 -134 297 29 121 130 196 251 187 31 -2 71 -12 90 -21z"/>
</g>
</svg>
