<?xml version="1.0" standalone="no"?>
<!DOCTYPE svg PUBLIC "-//W3C//DTD SVG 20010904//EN"
 "http://www.w3.org/TR/2001/REC-SVG-20010904/DTD/svg10.dtd">
<svg version="1.0" xmlns="http://www.w3.org/2000/svg"
 width="512.000000pt" height="512.000000pt" viewBox="0 0 512.000000 512.000000"
 preserveAspectRatio="xMidYMid meet">

<g transform="translate(0.000000,512.000000) scale(0.100000,-0.100000)"
fill="#000000" stroke="none">
<path d="M1365 5010 c-178 -28 -323 -154 -378 -325 -12 -40 -21 -103 -24 -187
-5 -108 -8 -128 -22 -128 -21 -1 -45 -19 -59 -47 -17 -31 -16 -330 1 -363 7
-14 27 -31 45 -39 25 -11 32 -21 32 -42 0 -21 -6 -28 -30 -32 -53 -11 -62 -45
-58 -237 3 -147 5 -171 22 -188 10 -12 28 -22 40 -24 l21 -3 3 -1417 2 -1416
90 -66 c350 -258 741 -412 1205 -477 116 -17 483 -17 605 -1 457 61 858 219
1210 478 l90 66 0 166 0 167 88 -88 88 -88 95 98 c52 54 127 143 168 196 l75
98 -178 177 -177 177 -37 -45 c-47 -59 -213 -225 -277 -277 l-50 -42 38 -38
37 -39 0 -94 c-1 -52 -7 -111 -14 -131 -19 -55 -63 -106 -110 -128 -42 -21
-52 -21 -1343 -21 l-1301 0 -53 28 c-39 20 -62 41 -84 77 l-30 48 0 1657 0
1657 30 48 c22 36 45 57 84 77 l53 28 1298 0 1298 0 53 -28 c39 -20 62 -41 84
-77 l30 -48 3 -218 3 -218 125 -127 124 -126 0 419 c0 474 1 470 -77 508 l-40
20 -6 125 c-7 175 -38 262 -127 364 -41 46 -126 102 -198 129 l-57 22 -1180 1
c-649 1 -1202 -2 -1230 -6z"/>
</g>
</svg>
